<svg width="26" height="25" viewBox="0 0 26 25" fill="none" xmlns="http://www.w3.org/2000/svg">
<path d="M12.7617 0.60241C19.3129 0.60241 24.6593 5.9488 24.6593 12.5C24.6593 19.0512 19.3506 24.3976 12.7617 24.3976C6.21052 24.3976 0.864129 19.0512 0.864129 12.5C0.864129 5.9488 6.21052 0.60241 12.7617 0.60241ZM12.7617 0C5.87166 0 0.261719 5.60994 0.261719 12.5C0.261719 19.3901 5.87166 25 12.7617 25C19.6518 25 25.2617 19.3901 25.2617 12.5C25.2617 5.60994 19.6518 0 12.7617 0Z" fill="#000000"/>
<path fill-rule="evenodd" clip-rule="evenodd" d="M16.79 12.1612C16.79 10.9187 17.4678 9.75155 18.522 9.11149C17.8443 8.17023 16.79 7.53017 15.5852 7.49252C14.3428 7.34192 13.1756 8.24553 12.5355 8.24553C11.8955 8.24553 10.9165 7.49252 9.86233 7.53017C8.50691 7.56782 7.22679 8.35848 6.58673 9.52565C5.15601 12.0106 6.21022 15.6627 7.56564 17.6582C8.24336 18.6371 9.03402 19.729 10.0882 19.6913C11.1048 19.6537 11.4813 19.0513 12.7238 19.0513C13.9662 19.0513 14.3051 19.6913 15.3593 19.6537C16.4512 19.6537 17.1289 18.6747 17.8066 17.6958C18.2961 16.9805 18.6726 16.2275 18.9361 15.3991C17.6184 14.8344 16.79 13.5543 16.79 12.1612Z" fill="#000000"/>
<path fill-rule="evenodd" clip-rule="evenodd" d="M14.7567 6.13695C15.3214 5.42159 15.6603 4.48033 15.585 3.53906C14.6814 3.65201 13.8154 4.06617 13.2506 4.78153C12.6859 5.49689 12.347 6.40051 12.3847 7.26647C13.3259 7.30412 14.1919 6.88997 14.7567 6.13695Z" fill="#000000"/>
</svg>
