<svg width="26" height="25" viewBox="0 0 26 25" fill="none" xmlns="http://www.w3.org/2000/svg">
<path d="M13.0244 0.60241C19.5756 0.60241 24.8844 5.91115 24.8844 12.4624C24.8844 18.6747 20.1027 23.7952 14.041 24.2846C13.7021 24.3599 13.3633 24.3599 13.0244 24.3599C12.1208 24.3599 11.2925 24.2846 10.4642 24.0964C5.11779 22.9292 1.12682 18.1476 1.12682 12.5C1.12682 5.91115 6.47321 0.60241 13.0244 0.60241ZM13.0244 0C6.13436 0 0.524414 5.60994 0.524414 12.5C0.524414 18.2982 4.66598 23.4187 10.3136 24.6988C11.1795 24.8871 12.0832 25 13.0244 25C13.4009 25 13.7774 25 14.1539 24.9624C20.5169 24.4352 25.5244 18.9759 25.5244 12.5377C25.5244 5.60994 19.9145 0 13.0244 0Z" fill="#000000"/>
<path d="M14.3803 10.0145C14.5686 9.78864 14.9451 9.63804 15.4722 9.63804C15.9617 9.63804 16.5264 9.71334 17.0912 9.86394L17.543 7.379C16.6017 7.04015 15.6228 6.96484 14.6062 6.96484C13.5897 6.96484 12.799 7.11545 12.1589 7.49195C11.5189 7.83081 11.0671 8.24496 10.8412 8.84737C10.5776 9.37448 10.4647 10.2404 10.4647 11.37V12.3489H8.50684V15.135H10.4647V24.0959C11.293 24.2841 12.1589 24.3594 13.0249 24.3594C13.3638 24.3594 13.7026 24.3594 14.0415 24.2841V15.135H16.6394V12.2736H14.0415V11.37C14.0415 10.6923 14.1544 10.2404 14.3803 10.0145Z" fill="#000000"/>
</svg>
