<svg width="25" height="25" fill="none" xmlns="http://www.w3.org/2000/svg"><path d="M12.5.602c6.551 0 11.86 5.31 11.86 11.86 0 6.213-4.782 11.333-10.843 11.823-.34.075-.678.075-1.017.075-.904 0-1.732-.075-2.56-.264C4.593 22.93.602 18.148.602 12.5.602 5.911 5.95.602 12.5.602zm0-.602C5.61 0 0 5.61 0 12.5c0 5.798 4.142 10.919 9.79 12.199.865.188 1.769.301 2.71.301.377 0 .753 0 1.13-.038C19.992 24.435 25 18.976 25 12.538 25 5.61 19.39 0 12.5 0z" fill="#000000"/><path fill-rule="evenodd" clip-rule="evenodd" d="M8.208 5.271c.226.038.452.151.64.264l8.471 4.744-2.07 2.07c-2.335-2.371-4.707-4.743-7.041-7.078zm-.866.866V19.24c0 .263.113.527.301.715 2.447-2.41 4.857-4.857 7.267-7.266-2.41-2.448-4.857-4.857-7.267-7.305a1.12 1.12 0 00-.301.753zm8.283 6.552l2.146 2.146a95.54 95.54 0 002.673-1.506c.226-.15.452-.377.452-.64 0-.302-.226-.527-.452-.678a95.54 95.54 0 01-2.673-1.506c-.715.753-1.43 1.468-2.146 2.184zm-7.417 7.417c2.334-2.372 4.706-4.707 7.078-7.079l2.07 2.071c-2.823 1.582-5.684 3.2-8.508 4.782-.226.075-.414.188-.64.226z" fill="#000000"/></svg>