<svg width="26" height="25" fill="none" xmlns="http://www.w3.org/2000/svg"><path d="M13.286.602c6.551 0 11.898 5.347 11.898 11.898 0 6.551-5.309 11.898-11.898 11.898C6.735 24.398 1.39 19.05 1.39 12.5 1.389 5.949 6.735.602 13.286.602zm0-.602C6.396 0 .786 5.61.786 12.5S6.396 25 13.286 25s12.5-5.61 12.5-12.5S20.176 0 13.286 0z" fill="#000000"/><path fill-rule="evenodd" clip-rule="evenodd" d="M18.03 6.1H8.58c-1.13 0-1.694.602-1.694 1.732v9.45c0 1.092.602 1.694 1.656 1.694h9.488c1.092 0 1.695-.602 1.695-1.694v-9.45c0-1.13-.603-1.732-1.695-1.732zm-1.054 1.43c1.28 0 1.28 0 1.28 1.28 0 1.243 0 1.243-1.242 1.243-1.28 0-1.28 0-1.28-1.28 0-1.243 0-1.243 1.242-1.243zm-3.69 2.485c1.356 0 2.485 1.167 2.485 2.485 0 1.356-1.167 2.485-2.522 2.485-1.356-.037-2.485-1.167-2.448-2.485.038-1.355 1.168-2.485 2.485-2.485zm4.97 6.702c0 .603-.15.753-.753.753H9.107c-.602 0-.753-.15-.753-.753 0-1.544 0-3.125-.038-4.669 0-.451.113-.527.528-.527.602.038.602.038.527.603-.226 1.995 1.13 3.915 3.087 4.292 2.033.376 4.029-.828 4.593-2.749.151-.602.226-1.242.076-1.845-.038-.225 0-.263.226-.263.903-.075.903-.075.903.828v4.33z" fill="#000000"/></svg>